HIERARCHY
ROOT Hips
{
	OFFSET 0.000000 0.000000 0.000000
	CHANNELS 6 Xposition Yposition Zposition Zrotation Yrotation Xrotation 
	JOINT LHipJoint
	{
		OFFSET 0.000000 0.000000 0.000000
		CHANNELS 3 Zrotation Yrotation Xrotation
		JOINT LeftUpLeg
		{
			OFFSET 1.363060 -1.794630 0.839290
			CHANNELS 3 Zrotation Yrotation Xrotation
			JOINT LeftLeg
			{
				OFFSET 2.448110 -6.726130 0.000000
				CHANNELS 3 Zrotation Yrotation Xrotation
				JOINT LeftFoot
				{
					OFFSET 2.562200 -7.039590 0.000000
					CHANNELS 3 Zrotation Yrotation Xrotation
					JOINT LeftToeBase
					{
						OFFSET 0.157640 -0.433110 2.322550
						CHANNELS 3 Zrotation Yrotation Xrotation
						End Site
						{
							OFFSET 0.000000 0.000000 0.000000
						}
					}
				}
			}
		}
	}
	JOINT RHipJoint
	{
		OFFSET 0.000000 0.000000 0.000000
		CHANNELS 3 Zrotation Yrotation Xrotation
		JOINT RightUpLeg
		{
			OFFSET -1.305520 -1.794630 0.839290
			CHANNELS 3 Zrotation Yrotation Xrotation
			JOINT RightLeg
			{
				OFFSET -2.542530 -6.985550 0.000000
				CHANNELS 3 Zrotation Yrotation Xrotation
				JOINT RightFoot
				{
					OFFSET -2.568260 -7.056230 0.000000
					CHANNELS 3 Zrotation Yrotation Xrotation
					JOINT RightToeBase
					{
						OFFSET -0.164730 -0.452590 2.363150
						CHANNELS 3 Zrotation Yrotation Xrotation
						End Site
						{
							OFFSET 0.000000 0.000000 0.000000
						}
					}
				}
			}
		}
	}
	JOINT LowerBack
	{
		OFFSET 0.000000 0.000000 0.000000
		CHANNELS 3 Zrotation Yrotation Xrotation
		JOINT Spine
		{
			OFFSET 0.028270 2.035590 -0.193380
			CHANNELS 3 Zrotation Yrotation Xrotation
			JOINT Spine1
			{
				OFFSET 0.056720 2.048850 -0.042750
				CHANNELS 3 Zrotation Yrotation Xrotation
				JOINT Neck
				{
					OFFSET 0.000000 0.000000 0.000000
					CHANNELS 3 Zrotation Yrotation Xrotation
					JOINT Neck1
					{
						OFFSET -0.054170 1.746240 0.172020
						CHANNELS 3 Zrotation Yrotation Xrotation
						JOINT Head
						{
							OFFSET 0.104070 1.761360 -0.123970
							CHANNELS 3 Zrotation Yrotation Xrotation
							End Site
							{
								OFFSET 0.000000 0.000000 0.000000
							}
						}
					}
				}
				JOINT LeftShoulder
				{
					OFFSET 0.000000 0.000000 0.000000
					CHANNELS 3 Zrotation Yrotation Xrotation
					JOINT LeftArm
					{
						OFFSET 3.362410 1.200890 -0.311210
						CHANNELS 3 Zrotation Yrotation Xrotation
						JOINT LeftForeArm
						{
							OFFSET 4.983000 -0.000000 -0.000000
							CHANNELS 3 Zrotation Yrotation Xrotation
							JOINT LeftHand
							{
								OFFSET 3.483560 -0.000000 -0.000000
								CHANNELS 3 Zrotation Yrotation Xrotation
								JOINT LeftFingerBase
								{
									OFFSET 0.000000 0.000000 0.000000
									CHANNELS 3 Zrotation Yrotation Xrotation
									JOINT LeftHandIndex1
									{
										OFFSET 0.715260 -0.000000 -0.000000
										CHANNELS 3 Zrotation Yrotation Xrotation
										End Site
										{
											OFFSET 0.000000 0.000000 0.000000
										}
									}
								}
								JOINT LThumb
								{
									OFFSET 0.000000 0.000000 0.000000
									CHANNELS 3 Zrotation Yrotation Xrotation
									End Site
									{
										OFFSET 0.000000 0.000000 0.000000
									}
								}
							}
						}
					}
				}
				JOINT RightShoulder
				{
					OFFSET 0.000000 0.000000 0.000000
					CHANNELS 3 Zrotation Yrotation Xrotation
					JOINT RightArm
					{
						OFFSET -3.136600 1.374050 -0.404650
						CHANNELS 3 Zrotation Yrotation Xrotation
						JOINT RightForeArm
						{
							OFFSET -5.241900 -0.000000 -0.000000
							CHANNELS 3 Zrotation Yrotation Xrotation
							JOINT RightHand
							{
								OFFSET -3.444170 -0.000000 -0.000000
								CHANNELS 3 Zrotation Yrotation Xrotation
								JOINT RightFingerBase
								{
									OFFSET 0.000000 0.000000 0.000000
									CHANNELS 3 Zrotation Yrotation Xrotation
									JOINT RightHandIndex1
									{
										OFFSET -0.622530 -0.000000 -0.000000
										CHANNELS 3 Zrotation Yrotation Xrotation
										End Site
										{
											OFFSET 0.000000 0.000000 0.000000
										}
									}
								}
								JOINT RThumb
								{
									OFFSET 0.000000 0.000000 0.000000
									CHANNELS 3 Zrotation Yrotation Xrotation
									End Site
									{
										OFFSET 0.000000 0.000000 0.000000
									}
								}
							}
						}
					}
				}
			}
		}
	}
}
MOTION
Frames: 10
Frame Time: 0.008333
24.082038 16.117288 2.028559 108.949143 -86.061359 -84.911440 -6.541370 1.339591 9.863217 -9.446753 -21.981257 -61.974169 -1.456248 0.945934 34.707053 2.159745 7.833148 -8.952598 0.485100 0.000000 -18.085700 12.051467 -5.866484 1.910446 3.219905 -9.793899 4.448018 0.986629 -0.902683 10.825837 0.221045 7.959081 22.741286 3.760100 0.000000 -85.685900 -6.852761 4.238460 -13.125764 -3.140535 4.674502 -5.415664 -7.700841 4.626388 1.955434 10.803299 -3.737181 -10.768720 -3.218464 -0.227046 -0.892732 0.000000 0.000000 0.000000 -2.835308 28.792742 1.510167 -30.910781 3.324150 -51.639027 -1.654288 -25.225600 -0.025735 29.166746 -3.333955 -0.879322 0.036354 0.048093 -0.000000 0.000000 0.000000 0.000000 0.000000 0.000000 0.000000 14.241809 5.428090 -0.212010 74.921405 22.311284 57.212415 0.793138 83.565905 0.035094 -5.336904 32.772329 -1.668497 0.188604 -0.966397 -0.000000 0.000000 0.000000 0.000000 0.000000 0.000000 0.000000 
23.835887 16.155181 2.025358 110.262572 -85.724092 -86.457702 -6.499339 1.407196 9.764204 -10.322704 -21.841941 -60.808202 -1.476741 0.967472 35.066687 2.282523 8.355754 -9.368778 0.418500 0.000000 -17.280500 12.286000 -5.834688 1.868879 2.401839 -10.311329 3.091556 0.655521 -1.117744 13.973307 -0.000691 8.605032 25.780689 4.594500 0.000000 -85.239301 -7.182802 4.218721 -13.040803 -3.204179 4.706467 -5.411442 -7.685189 4.656337 1.895658 10.823652 -3.739844 -10.776790 -3.226305 -0.227412 -0.896996 0.000000 0.000000 0.000000 -3.071082 28.839557 1.460211 -31.015133 2.600727 -51.829775 -1.613066 -26.356080 -0.025575 29.127819 -3.470034 -0.913608 0.031854 0.048264 -0.000000 0.000000 0.000000 0.000000 0.000000 0.000000 0.000000 14.420649 5.450454 -0.240958 75.066844 21.484074 57.084341 0.866797 81.757651 0.033887 -5.129368 32.306442 -1.577719 0.179514 -0.928976 -0.000000 0.000000 0.000000 0.000000 0.000000 0.000000 0.000000 
23.594379 16.193135 2.023581 111.550947 -85.381029 -88.031204 -6.473051 1.477899 9.630199 -11.278024 -21.571753 -59.518214 -1.526514 0.989602 35.354294 2.361757 8.671640 -9.828959 0.323000 -0.000000 -16.606200 12.508834 -5.740427 1.806748 1.586597 -10.896599 1.639120 0.345841 -1.280497 17.326204 -0.249154 9.008658 28.494976 5.298500 -0.000000 -83.325800 -7.474574 4.184282 -12.895381 -3.252940 4.714977 -5.391007 -7.658073 4.662943 1.849566 10.823587 -3.748062 -10.783230 -3.235386 -0.227727 -0.901058 0.000000 0.000000 0.000000 -3.321960 28.883037 1.411629 -31.263383 1.868860 -51.999862 -1.568769 -27.579244 -0.025348 29.122496 -3.602293 -0.947894 0.027654 0.048256 -0.000000 0.000000 0.000000 0.000000 0.000000 0.000000 0.000000 14.587529 5.448118 -0.266094 75.160730 20.734956 56.923127 0.934522 79.875200 0.032953 -4.894240 31.832402 -1.480452 0.170304 -0.890716 -0.000000 0.000000 0.000000 0.000000 0.000000 0.000000 0.000000 
23.357118 16.230992 2.022885 112.684701 -85.026043 -89.495868 -6.453409 1.558455 9.471688 -12.298714 -21.199766 -58.097103 -1.604463 1.008607 35.547874 2.401022 8.794094 -10.332213 0.203800 -0.000000 -16.048300 12.719922 -5.585760 1.721296 0.770371 -11.553552 0.101190 0.074380 -1.400188 20.849903 -0.507059 8.998031 30.706154 5.704399 0.000000 -80.043900 -7.739979 4.131548 -12.698104 -3.289907 4.697218 -5.356659 -7.624226 4.643110 1.815595 10.811917 -3.763265 -10.784798 -3.246801 -0.228157 -0.903958 0.000000 0.000000 0.000000 -3.577820 28.898446 1.365572 -31.643055 1.163397 -52.128714 -1.522859 -28.896824 -0.025090 29.150027 -3.715436 -0.978280 0.023602 0.048168 -0.000000 0.000000 0.000000 0.000000 0.000000 0.000000 0.000000 14.751701 5.417055 -0.284347 75.181361 20.052690 56.707871 0.999277 77.923078 0.032687 -4.597999 31.475032 -1.372986 0.160445 -0.852976 -0.000000 0.000000 0.000000 0.000000 0.000000 0.000000 0.000000 
23.123750 16.268850 2.023925 113.674681 -84.683894 -90.843124 -6.445069 1.647305 9.297344 -13.333158 -20.726352 -56.574431 -1.704728 1.020999 35.643856 2.403099 8.729129 -10.880748 0.066300 -0.000000 -15.591399 12.905571 -5.385407 1.620529 0.007317 -12.234923 -1.522594 -0.149212 -1.494858 24.497729 -0.760184 8.387129 32.260782 5.639500 -0.000001 -75.717200 -7.955608 4.063022 -12.470803 -3.311650 4.652478 -5.310741 -7.589559 4.596049 1.800713 10.798462 -3.801273 -10.787648 -3.260656 -0.228731 -0.906999 0.000000 0.000000 0.000000 -3.845609 28.892667 1.317072 -32.135897 0.471392 -52.207826 -1.477403 -30.292808 -0.024757 29.204888 -3.815339 -1.006366 0.019573 0.047925 -0.000000 0.000000 0.000000 0.000000 0.000000 0.000000 0.000000 14.922981 5.338696 -0.292058 75.079714 19.438709 56.442081 1.063418 75.925135 0.033337 -4.247371 31.353907 -1.262008 0.150318 -0.816819 -0.000000 0.000000 0.000000 0.000000 0.000000 0.000000 0.000000 
22.893369 16.306940 2.026653 114.510800 -84.358425 -92.049173 -6.445179 1.745716 9.117275 -14.355678 -20.169204 -54.964972 -1.824077 1.022461 35.619991 2.375741 8.508296 -11.466342 -0.080901 0.000000 -15.223100 13.063442 -5.152314 1.507355 -0.686610 -12.923678 -3.240772 -0.326860 -1.584850 28.230934 -0.998839 7.102782 33.034021 5.026500 -0.000001 -70.828700 -8.121781 3.979187 -12.229167 -3.318398 4.582995 -5.257562 -7.550159 4.524256 1.796538 10.773529 -3.873037 -10.784819 -3.272648 -0.229206 -0.907718 0.000000 0.000000 0.000000 -4.130447 28.843272 1.268383 -32.719628 -0.185666 -52.214586 -1.434458 -31.760832 -0.024378 29.278485 -3.894165 -1.029650 0.015073 0.047672 -0.000000 0.000000 0.000000 0.000000 0.000000 0.000000 0.000000 15.073241 5.204129 -0.297429 74.959188 18.875676 56.136994 1.125081 73.900172 0.034132 -3.876761 31.201858 -1.145320 0.140700 -0.780226 -0.000000 0.000000 0.000000 0.000000 0.000000 0.000000 0.000000 
22.665277 16.345519 2.030900 115.212064 -84.051372 -93.115964 -6.450188 1.854339 8.940747 -15.346165 -19.546271 -53.288520 -1.959422 1.008826 35.453646 2.328063 8.171022 -12.076368 -0.228600 -0.000000 -14.934100 13.194035 -4.898247 1.387697 -1.297714 -13.595062 -5.065924 -0.467378 -1.687254 32.007245 -1.218334 5.182935 32.941509 3.903000 0.000000 -65.855200 -8.243728 3.880184 -11.990980 -3.313049 4.490129 -5.200988 -7.511734 4.428966 1.802850 10.748998 -3.974112 -10.776361 -3.284488 -0.229782 -0.906148 0.000000 0.000000 0.000000 -4.425578 28.748928 1.218039 -33.374356 -0.814426 -52.133374 -1.395060 -33.288630 -0.023949 29.364660 -3.952911 -1.048332 0.010046 0.047413 -0.000000 0.000000 0.000000 0.000000 0.000000 0.000000 0.000000 15.216268 5.019007 -0.299467 74.777758 18.335326 55.752790 1.186993 71.868159 0.035272 -3.472889 31.145837 -1.023714 0.131274 -0.744441 -0.000000 0.000000 0.000000 0.000000 0.000000 0.000000 0.000000 
22.438824 16.384925 2.036767 115.848425 -83.770026 -94.094176 -6.461002 1.970978 8.773947 -16.281025 -18.864339 -51.574520 -2.106676 0.976855 35.132221 2.268309 7.754216 -12.698564 -0.369800 0.000001 -14.714700 13.295195 -4.635010 1.272206 -1.798774 -14.207878 -7.012163 -0.581416 -1.813390 35.779228 -1.416789 2.767590 31.945634 2.416100 0.000000 -61.152300 -8.317016 3.768772 -11.775254 -3.295857 4.377149 -5.145257 -7.475483 4.313426 1.817690 10.727738 -4.109050 -10.762210 -3.295732 -0.230485 -0.902049 0.000000 0.000000 0.000000 -4.732316 28.601817 1.165610 -34.081845 -1.409300 -51.942580 -1.360596 -34.870798 -0.023437 29.453001 -3.992504 -1.062110 0.004276 0.047125 -0.000000 0.000000 0.000000 0.000000 0.000000 0.000000 0.000000 15.351508 4.781824 -0.298757 74.536879 17.802153 55.274144 1.249840 69.850637 0.036611 -3.055133 31.164104 -0.901288 0.122412 -0.709422 -0.000000 0.000000 0.000000 0.000000 0.000000 0.000000 0.000000 
22.213606 16.425420 2.044106 116.479086 -83.516155 -95.030783 -6.476925 2.093243 8.620485 -17.147140 -18.131773 -49.848899 -2.262421 0.924294 34.646049 2.204190 7.295799 -13.318005 -0.499300 0.000000 -14.555100 13.367873 -4.370456 1.170312 -2.174368 -14.728775 -9.090893 -0.678293 -1.968301 39.498581 -1.592662 0.080437 30.052553 0.793000 -0.000000 -56.828400 -8.342957 3.648010 -11.595257 -3.268097 4.248143 -5.093980 -7.441912 4.181730 1.837640 10.711604 -4.276243 -10.741377 -3.306133 -0.231339 -0.895086 0.000000 0.000000 0.000000 -5.047789 28.396876 1.111422 -34.827425 -1.972149 -51.622987 -1.331509 -36.499724 -0.022844 29.536082 -4.013617 -1.070885 -0.002362 0.046834 -0.000000 0.000000 0.000000 0.000000 0.000000 0.000000 0.000000 15.477027 4.498137 -0.296851 74.239229 17.256085 54.674373 1.313919 67.870394 0.037987 -2.639156 31.229894 -0.781037 0.114298 -0.675140 -0.000000 0.000000 0.000000 0.000000 0.000000 0.000000 0.000000 
21.989205 16.467147 2.052686 117.158866 -83.287036 -95.968651 -6.496017 2.219201 8.481708 -17.941572 -17.358040 -48.130659 -2.423784 0.849671 33.989655 2.142359 6.831416 -13.919890 -0.614299 0.000000 -14.445500 13.415393 -4.109587 1.090827 -2.419819 -15.130492 -11.305609 -0.763843 -2.151036 43.112847 -1.744459 -2.628125 27.316866 -0.721300 0.000000 -52.787101 -8.327356 3.520651 -11.459415 -3.231728 4.107168 -5.049817 -7.410790 4.037977 1.859633 10.701423 -4.466747 -10.712801 -3.315629 -0.232359 -0.885085 0.000000 0.000000 0.000000 -5.365779 28.139852 1.055899 -35.600338 -2.520384 -51.161079 -1.307671 -38.161600 -0.022194 29.608200 -4.025492 -1.076955 -0.009967 0.046604 -0.000000 0.000000 0.000000 0.000000 0.000000 0.000000 0.000000 15.589971 4.180722 -0.296287 73.888798 16.674932 53.918750 1.379166 65.949358 0.039238 -2.237375 31.315613 -0.665166 0.106959 -0.641583 -0.000000 0.000000 0.000000 0.000000 0.000000 0.000000 0.000000 
